<svg width="44" height="43" viewBox="0 0 44 43" fill="none" xmlns="http://www.w3.org/2000/svg">
<path d="M22 40.6207C33.0457 40.6207 42 31.9752 42 21.3103C42 10.6455 33.0457 2 22 2C10.9543 2 2 10.6455 2 21.3103C2 31.9752 10.9543 40.6207 22 40.6207Z" stroke="#0097A7" stroke-width="3"/>
<path d="M20.85 29.275C20.3333 29.275 19.8917 29.0583 19.525 28.625C19.175 28.175 18.8333 27.4417 18.5 26.425C18.3333 25.925 18.1917 25.4417 18.075 24.975C17.975 24.4917 17.9 24.025 17.85 23.575C17.6333 23.9083 17.4333 24.1333 17.25 24.25C17.0833 24.35 16.8333 24.4 16.5 24.4C15.6833 24.4 14.8167 24.3917 13.9 24.375C12.9833 24.3417 12.1667 24.3167 11.45 24.3C11.4167 24.6 11.3833 24.9083 11.35 25.225C11.3333 25.525 11.325 25.825 11.325 26.125C11.325 26.3917 11.3333 26.6583 11.35 26.925C11.3833 27.1917 11.4083 27.45 11.425 27.7C11.475 28.1667 11.2917 28.5417 10.875 28.825C10.4583 29.1083 9.94167 29.25 9.325 29.25C8.79167 29.25 8.525 29.0167 8.525 28.55C8.525 28.2667 8.6 27.8417 8.75 27.275C8.83333 26.8917 8.9 26.5667 8.95 26.3C9 26.0167 9.025 25.7917 9.025 25.625C9.025 25.1583 8.88333 24.8417 8.6 24.675C8.36667 24.5417 8.25 24.3667 8.25 24.15C8.25 23.95 8.29167 23.7083 8.375 23.425C8.475 23.1417 8.6 22.8833 8.75 22.65C8.9 22.4 9.04167 22.225 9.175 22.125C9.29167 22.0583 9.43333 22 9.6 21.95C9.76667 21.9 9.975 21.8667 10.225 21.85C10.875 19.9833 11.6 18.375 12.4 17.025C13.2167 15.6583 14.0833 14.6083 15 13.875C15.9167 13.125 16.85 12.75 17.8 12.75C18.3833 12.75 18.8083 12.95 19.075 13.35C19.3417 13.7333 19.475 14.3833 19.475 15.3V16.425C19.475 18.1083 19.6 19.6583 19.85 21.075C20.1 22.4917 20.4083 23.6417 20.775 24.525C21.1417 25.4583 21.65 26.225 22.3 26.825C22.5 26.9917 22.6333 27.1417 22.7 27.275C22.7667 27.3917 22.8 27.5167 22.8 27.65C22.8 27.9 22.7 28.15 22.5 28.4C22.3167 28.65 22.075 28.8583 21.775 29.025C21.475 29.1917 21.1667 29.275 20.85 29.275ZM12.2 21.7C13.0167 21.6667 13.7333 21.6417 14.35 21.625C14.9667 21.5917 15.4833 21.575 15.9 21.575H17.65C17.6167 21.1083 17.5833 20.6167 17.55 20.1C17.5333 19.5833 17.525 19.0417 17.525 18.475V17.025C17.525 16.5417 17.4667 16.225 17.35 16.075C17.25 15.9083 17.05 15.825 16.75 15.825C15.9333 15.825 15.1167 16.3583 14.3 17.425C13.4833 18.4917 12.7833 19.9167 12.2 21.7Z" fill="#0097A7"/>
<path d="M23.068 23.242C22.54 23.242 22.3053 23.066 22.364 22.714C22.5253 22.0833 22.6573 21.4453 22.76 20.8C22.8773 20.14 22.936 19.5093 22.936 18.908C22.936 18.1307 22.8847 17.566 22.782 17.214C22.694 16.8473 22.5693 16.598 22.408 16.466C22.2467 16.3193 22.0487 16.2093 21.814 16.136C21.7113 16.092 21.616 16.0333 21.528 15.96C21.4547 15.8867 21.418 15.784 21.418 15.652C21.418 15.4467 21.4987 15.2193 21.66 14.97C21.8213 14.7207 22.0487 14.508 22.342 14.332C22.65 14.1413 22.9947 14.046 23.376 14.046C23.8747 14.046 24.2193 14.222 24.41 14.574C24.6007 14.9113 24.696 15.3587 24.696 15.916C24.696 16.2827 24.6593 16.6933 24.586 17.148C24.5127 17.6027 24.4393 18.0133 24.366 18.38L24.41 18.402C24.6447 17.6247 24.9307 16.906 25.268 16.246C25.62 15.586 26.038 15.0507 26.522 14.64C27.0207 14.2293 27.5927 14.024 28.238 14.024C28.898 14.024 29.4187 14.2513 29.8 14.706C30.1813 15.146 30.372 15.7987 30.372 16.664V17.148C30.7973 16.2533 31.3107 15.5053 31.912 14.904C32.528 14.3027 33.2687 14.002 34.134 14.002C34.838 14.002 35.388 14.2367 35.784 14.706C36.18 15.1753 36.378 15.762 36.378 16.466C36.378 16.7447 36.3487 17.016 36.29 17.28C36.2313 17.5293 36.1653 17.7787 36.092 18.028C36.0333 18.2627 35.9747 18.5047 35.916 18.754C35.8573 19.0033 35.828 19.2527 35.828 19.502C35.828 20.382 36.202 20.954 36.95 21.218C37.0527 21.262 37.1333 21.3133 37.192 21.372C37.2507 21.416 37.28 21.504 37.28 21.636C37.28 21.768 37.236 21.9587 37.148 22.208C37.0747 22.4573 36.9207 22.692 36.686 22.912C36.4513 23.1173 36.114 23.22 35.674 23.22C35.102 23.22 34.662 23.0147 34.354 22.604C34.046 22.1787 33.892 21.6433 33.892 20.998C33.892 20.6753 33.9213 20.338 33.98 19.986C34.0387 19.634 34.112 19.2967 34.2 18.974C34.2733 18.6807 34.332 18.402 34.376 18.138C34.4347 17.874 34.464 17.6467 34.464 17.456C34.464 17.104 34.376 16.8473 34.2 16.686C34.0387 16.5247 33.8187 16.444 33.54 16.444C33.0707 16.444 32.6453 16.5907 32.264 16.884C31.8973 17.1773 31.5673 17.5587 31.274 18.028C30.9953 18.4973 30.7533 19.0107 30.548 19.568C30.5627 19.7 30.57 19.876 30.57 20.096C30.5847 20.3013 30.592 20.4847 30.592 20.646C30.592 20.9247 30.57 21.218 30.526 21.526C30.4967 21.834 30.4307 22.0907 30.328 22.296C30.2107 22.5747 30.0347 22.802 29.8 22.978C29.58 23.154 29.2793 23.242 28.898 23.242C28.7367 23.242 28.5827 23.2053 28.436 23.132C28.2893 23.0733 28.216 22.9707 28.216 22.824C28.216 22.7653 28.26 22.5087 28.348 22.054C28.436 21.5847 28.524 21.0127 28.612 20.338C28.7 19.6633 28.744 19.0033 28.744 18.358C28.744 17.654 28.6707 17.17 28.524 16.906C28.3773 16.6273 28.1573 16.488 27.864 16.488C27.4973 16.488 27.1453 16.642 26.808 16.95C26.4853 17.258 26.1847 17.654 25.906 18.138C25.642 18.622 25.4073 19.128 25.202 19.656C25.0113 20.184 24.8573 20.6753 24.74 21.13V21.372C24.74 21.9147 24.586 22.362 24.278 22.714C23.9847 23.066 23.5813 23.242 23.068 23.242Z" fill="#0097A7"/>
</svg>
