<svg width="203" height="47" viewBox="0 0 203 47" fill="none" xmlns="http://www.w3.org/2000/svg">
<path d="M22 44.6207C33.0457 44.6207 42 35.9752 42 25.3103C42 14.6455 33.0457 6 22 6C10.9543 6 2 14.6455 2 25.3103C2 35.9752 10.9543 44.6207 22 44.6207Z" stroke="#0097A7" stroke-width="3"/>
<path d="M20.85 33.275C20.3333 33.275 19.8917 33.0583 19.525 32.625C19.175 32.175 18.8333 31.4417 18.5 30.425C18.3333 29.925 18.1917 29.4417 18.075 28.975C17.975 28.4917 17.9 28.025 17.85 27.575C17.6333 27.9083 17.4333 28.1333 17.25 28.25C17.0833 28.35 16.8333 28.4 16.5 28.4C15.6833 28.4 14.8167 28.3917 13.9 28.375C12.9833 28.3417 12.1667 28.3167 11.45 28.3C11.4167 28.6 11.3833 28.9083 11.35 29.225C11.3333 29.525 11.325 29.825 11.325 30.125C11.325 30.3917 11.3333 30.6583 11.35 30.925C11.3833 31.1917 11.4083 31.45 11.425 31.7C11.475 32.1667 11.2917 32.5417 10.875 32.825C10.4583 33.1083 9.94167 33.25 9.325 33.25C8.79167 33.25 8.525 33.0167 8.525 32.55C8.525 32.2667 8.6 31.8417 8.75 31.275C8.83333 30.8917 8.9 30.5667 8.95 30.3C9 30.0167 9.025 29.7917 9.025 29.625C9.025 29.1583 8.88333 28.8417 8.6 28.675C8.36667 28.5417 8.25 28.3667 8.25 28.15C8.25 27.95 8.29167 27.7083 8.375 27.425C8.475 27.1417 8.6 26.8833 8.75 26.65C8.9 26.4 9.04167 26.225 9.175 26.125C9.29167 26.0583 9.43333 26 9.6 25.95C9.76667 25.9 9.975 25.8667 10.225 25.85C10.875 23.9833 11.6 22.375 12.4 21.025C13.2167 19.6583 14.0833 18.6083 15 17.875C15.9167 17.125 16.85 16.75 17.8 16.75C18.3833 16.75 18.8083 16.95 19.075 17.35C19.3417 17.7333 19.475 18.3833 19.475 19.3V20.425C19.475 22.1083 19.6 23.6583 19.85 25.075C20.1 26.4917 20.4083 27.6417 20.775 28.525C21.1417 29.4583 21.65 30.225 22.3 30.825C22.5 30.9917 22.6333 31.1417 22.7 31.275C22.7667 31.3917 22.8 31.5167 22.8 31.65C22.8 31.9 22.7 32.15 22.5 32.4C22.3167 32.65 22.075 32.8583 21.775 33.025C21.475 33.1917 21.1667 33.275 20.85 33.275ZM12.2 25.7C13.0167 25.6667 13.7333 25.6417 14.35 25.625C14.9667 25.5917 15.4833 25.575 15.9 25.575H17.65C17.6167 25.1083 17.5833 24.6167 17.55 24.1C17.5333 23.5833 17.525 23.0417 17.525 22.475V21.025C17.525 20.5417 17.4667 20.225 17.35 20.075C17.25 19.9083 17.05 19.825 16.75 19.825C15.9333 19.825 15.1167 20.3583 14.3 21.425C13.4833 22.4917 12.7833 23.9167 12.2 25.7Z" fill="#0097A7"/>
<path d="M83.56 37.44C82.7333 37.44 82.0267 37.0933 81.44 36.4C80.88 35.68 80.3333 34.5067 79.8 32.88C79.5333 32.08 79.3067 31.3067 79.12 30.56C78.96 29.7867 78.84 29.04 78.76 28.32C78.4133 28.8533 78.0933 29.2133 77.8 29.4C77.5333 29.56 77.1333 29.64 76.6 29.64C75.2933 29.64 73.9067 29.6267 72.44 29.6C70.9733 29.5467 69.6667 29.5067 68.52 29.48C68.4667 29.96 68.4133 30.4533 68.36 30.96C68.3333 31.44 68.32 31.92 68.32 32.4C68.32 32.8267 68.3333 33.2533 68.36 33.68C68.4133 34.1067 68.4533 34.52 68.48 34.92C68.56 35.6667 68.2667 36.2667 67.6 36.72C66.9333 37.1733 66.1067 37.4 65.12 37.4C64.2667 37.4 63.84 37.0267 63.84 36.28C63.84 35.8267 63.96 35.1467 64.2 34.24C64.3333 33.6267 64.44 33.1067 64.52 32.68C64.6 32.2267 64.64 31.8667 64.64 31.6C64.64 30.8533 64.4133 30.3467 63.96 30.08C63.5867 29.8667 63.4 29.5867 63.4 29.24C63.4 28.92 63.4667 28.5333 63.6 28.08C63.76 27.6267 63.96 27.2133 64.2 26.84C64.44 26.44 64.6667 26.16 64.88 26C65.0667 25.8933 65.2933 25.8 65.56 25.72C65.8267 25.64 66.16 25.5867 66.56 25.56C67.6 22.5733 68.76 20 70.04 17.84C71.3467 15.6533 72.7333 13.9733 74.2 12.8C75.6667 11.6 77.16 11 78.68 11C79.6133 11 80.2933 11.32 80.72 11.96C81.1467 12.5733 81.36 13.6133 81.36 15.08V16.88C81.36 19.5733 81.56 22.0533 81.96 24.32C82.36 26.5867 82.8533 28.4267 83.44 29.84C84.0267 31.3333 84.84 32.56 85.88 33.52C86.2 33.7867 86.4133 34.0267 86.52 34.24C86.6267 34.4267 86.68 34.6267 86.68 34.84C86.68 35.24 86.52 35.64 86.2 36.04C85.9067 36.44 85.52 36.7733 85.04 37.04C84.56 37.3067 84.0667 37.44 83.56 37.44ZM69.72 25.32C71.0267 25.2667 72.1733 25.2267 73.16 25.2C74.1467 25.1467 74.9733 25.12 75.64 25.12H78.44C78.3867 24.3733 78.3333 23.5867 78.28 22.76C78.2533 21.9333 78.24 21.0667 78.24 20.16V17.84C78.24 17.0667 78.1467 16.56 77.96 16.32C77.8 16.0533 77.48 15.92 77 15.92C75.6933 15.92 74.3867 16.7733 73.08 18.48C71.7733 20.1867 70.6533 22.4667 69.72 25.32ZM94.5453 37.52C93.5586 37.52 92.6386 37.3733 91.7853 37.08C90.932 36.7867 90.2386 36.3733 89.7053 35.84C89.172 35.3067 88.9053 34.6667 88.9053 33.92C88.9053 33.52 88.9986 33.1467 89.1853 32.8C89.3986 32.4267 89.732 32.24 90.1853 32.24C90.4253 32.24 90.6786 32.3067 90.9453 32.44C91.4253 32.7067 92.0386 32.96 92.7853 33.2C93.532 33.4133 94.3186 33.52 95.1453 33.52C96.0786 33.52 96.9053 33.3867 97.6253 33.12C98.3453 32.8533 98.7053 32.48 98.7053 32C98.7053 31.6267 98.4253 31.36 97.8653 31.2C97.332 31.04 96.4253 30.8667 95.1453 30.68C94.2653 30.52 93.412 30.3333 92.5853 30.12C91.7586 29.9067 91.0786 29.5467 90.5453 29.04C90.012 28.5067 89.7453 27.7333 89.7453 26.72C89.7453 25.7333 90.012 24.7867 90.5453 23.88C91.1053 22.9467 91.932 22.1733 93.0253 21.56C94.1186 20.9467 95.452 20.64 97.0253 20.64C97.852 20.64 98.652 20.7333 99.4253 20.92C100.199 21.1067 100.839 21.3867 101.345 21.76C101.852 22.1333 102.105 22.6 102.105 23.16C102.105 23.64 101.932 24.08 101.585 24.48C101.265 24.88 100.879 25.2133 100.425 25.48C99.9986 25.72 99.6386 25.84 99.3453 25.84C99.132 25.84 98.8786 25.6933 98.5853 25.4C98.132 25.0267 97.6253 24.7733 97.0653 24.64C96.532 24.48 95.9986 24.4 95.4653 24.4C94.6653 24.4 94.012 24.52 93.5053 24.76C93.0253 25 92.7853 25.3067 92.7853 25.68C92.7853 26.0267 92.9853 26.3067 93.3853 26.52C93.812 26.7333 94.332 26.8933 94.9453 27C95.5586 27.08 96.1453 27.16 96.7053 27.24C98.252 27.4533 99.4786 27.8267 100.385 28.36C101.292 28.8667 101.745 29.7733 101.745 31.08C101.745 32.0933 101.452 33.1067 100.865 34.12C100.305 35.1067 99.4786 35.92 98.3853 36.56C97.3186 37.2 96.0386 37.52 94.5453 37.52ZM107.523 37.44C107.229 37.44 106.949 37.3467 106.683 37.16C106.416 37 106.309 36.7733 106.363 36.48C106.763 34.3467 107.096 32.1867 107.363 30C107.656 27.7867 107.803 25.56 107.803 23.32C107.803 21.3467 107.736 19.56 107.603 17.96C107.469 16.36 107.043 14.8267 106.323 13.36C106.189 13.0667 106.083 12.8133 106.003 12.6C105.923 12.3867 105.883 12.1867 105.883 12C105.883 11.4933 106.176 11 106.763 10.52C107.349 10.04 107.976 9.8 108.643 9.8C109.603 9.8 110.256 10.3867 110.603 11.56C110.949 12.7333 111.123 14.4667 111.123 16.76C111.123 19.5067 110.963 21.9067 110.643 23.96C110.323 25.9867 110.043 27.5333 109.803 28.6L109.963 28.68C110.496 27.3733 111.176 26.12 112.003 24.92C112.829 23.6933 113.776 22.68 114.843 21.88C115.936 21.08 117.123 20.68 118.403 20.68C119.656 20.68 120.616 21.0533 121.283 21.8C121.976 22.5467 122.323 23.44 122.323 24.48C122.323 25.7067 121.883 26.8 121.003 27.76C120.123 28.72 118.976 29.52 117.563 30.16C117.909 31.0667 118.403 31.7867 119.043 32.32C119.683 32.8267 120.496 33.08 121.483 33.08C121.803 33.08 122.069 33.0533 122.283 33C122.629 32.92 122.803 33.2533 122.803 34C122.803 34.4267 122.723 34.9067 122.563 35.44C122.403 35.9733 122.083 36.44 121.603 36.84C121.149 37.2133 120.456 37.4 119.523 37.4C118.269 37.4 117.243 37.04 116.443 36.32C115.669 35.5733 115.056 34.6667 114.603 33.6C114.176 32.5067 113.843 31.4267 113.603 30.36C113.389 29.3733 113.723 28.8533 114.603 28.8C115.536 28.6933 116.323 28.4133 116.963 27.96C117.603 27.5067 117.923 26.9067 117.923 26.16C117.923 25.3067 117.509 24.88 116.683 24.88C116.149 24.88 115.603 25.08 115.043 25.48C114.509 25.8533 114.003 26.3067 113.523 26.84C113.069 27.3733 112.696 27.8933 112.403 28.4C112.003 29.0933 111.656 29.7733 111.363 30.44C111.069 31.1067 110.829 31.7733 110.643 32.44V34.04C110.643 35.0267 110.349 35.84 109.763 36.48C109.203 37.12 108.456 37.44 107.523 37.44ZM140.624 37.44C139.664 37.44 139.237 37.12 139.344 36.48C139.637 35.3333 139.877 34.1733 140.064 33C140.277 31.8 140.384 30.6533 140.384 29.56C140.384 28.1467 140.291 27.12 140.104 26.48C139.944 25.8133 139.717 25.36 139.424 25.12C139.131 24.8533 138.771 24.6533 138.344 24.52C138.157 24.44 137.984 24.3333 137.824 24.2C137.691 24.0667 137.624 23.88 137.624 23.64C137.624 23.2667 137.771 22.8533 138.064 22.4C138.357 21.9467 138.771 21.56 139.304 21.24C139.864 20.8933 140.491 20.72 141.184 20.72C142.091 20.72 142.717 21.04 143.064 21.68C143.411 22.2933 143.584 23.1067 143.584 24.12C143.584 24.7867 143.517 25.5333 143.384 26.36C143.251 27.1867 143.117 27.9333 142.984 28.6L143.064 28.64C143.491 27.2267 144.011 25.92 144.624 24.72C145.264 23.52 146.024 22.5467 146.904 21.8C147.811 21.0533 148.851 20.68 150.024 20.68C151.224 20.68 152.171 21.0933 152.864 21.92C153.557 22.72 153.904 23.9067 153.904 25.48V26.36C154.677 24.7333 155.611 23.3733 156.704 22.28C157.824 21.1867 159.171 20.64 160.744 20.64C162.024 20.64 163.024 21.0667 163.744 21.92C164.464 22.7733 164.824 23.84 164.824 25.12C164.824 25.6267 164.771 26.12 164.664 26.6C164.557 27.0533 164.437 27.5067 164.304 27.96C164.197 28.3867 164.091 28.8267 163.984 29.28C163.877 29.7333 163.824 30.1867 163.824 30.64C163.824 32.24 164.504 33.28 165.864 33.76C166.051 33.84 166.197 33.9333 166.304 34.04C166.411 34.12 166.464 34.28 166.464 34.52C166.464 34.76 166.384 35.1067 166.224 35.56C166.091 36.0133 165.811 36.44 165.384 36.84C164.957 37.2133 164.344 37.4 163.544 37.4C162.504 37.4 161.704 37.0267 161.144 36.28C160.584 35.5067 160.304 34.5333 160.304 33.36C160.304 32.7733 160.357 32.16 160.464 31.52C160.571 30.88 160.704 30.2667 160.864 29.68C160.997 29.1467 161.104 28.64 161.184 28.16C161.291 27.68 161.344 27.2667 161.344 26.92C161.344 26.28 161.184 25.8133 160.864 25.52C160.571 25.2267 160.171 25.08 159.664 25.08C158.811 25.08 158.037 25.3467 157.344 25.88C156.677 26.4133 156.077 27.1067 155.544 27.96C155.037 28.8133 154.597 29.7467 154.224 30.76C154.251 31 154.264 31.32 154.264 31.72C154.291 32.0933 154.304 32.4267 154.304 32.72C154.304 33.2267 154.264 33.76 154.184 34.32C154.131 34.88 154.011 35.3467 153.824 35.72C153.611 36.2267 153.291 36.64 152.864 36.96C152.464 37.28 151.917 37.44 151.224 37.44C150.931 37.44 150.651 37.3733 150.384 37.24C150.117 37.1333 149.984 36.9467 149.984 36.68C149.984 36.5733 150.064 36.1067 150.224 35.28C150.384 34.4267 150.544 33.3867 150.704 32.16C150.864 30.9333 150.944 29.7333 150.944 28.56C150.944 27.28 150.811 26.4 150.544 25.92C150.277 25.4133 149.877 25.16 149.344 25.16C148.677 25.16 148.037 25.44 147.424 26C146.837 26.56 146.291 27.28 145.784 28.16C145.304 29.04 144.877 29.96 144.504 30.92C144.157 31.88 143.877 32.7733 143.664 33.6V34.04C143.664 35.0267 143.384 35.84 142.824 36.48C142.291 37.12 141.557 37.44 140.624 37.44ZM176.089 37.52C174.062 37.52 172.476 36.9467 171.329 35.8C170.209 34.6267 169.649 33 169.649 30.92C169.649 29.0267 170.062 27.3067 170.889 25.76C171.716 24.2133 172.822 22.9867 174.209 22.08C175.622 21.1467 177.169 20.68 178.849 20.68C180.449 20.68 181.729 21.08 182.689 21.88C183.649 22.6533 184.129 23.6933 184.129 25C184.129 26.04 183.809 27 183.169 27.88C182.529 28.76 181.676 29.4667 180.609 30C179.542 30.5067 178.356 30.76 177.049 30.76C175.449 30.76 174.142 30.4 173.129 29.68C173.156 30.9067 173.569 31.8933 174.369 32.64C175.196 33.3867 176.249 33.76 177.529 33.76C178.302 33.76 179.089 33.6267 179.889 33.36C180.716 33.0667 181.422 32.68 182.009 32.2C182.382 31.88 182.729 31.72 183.049 31.72C183.316 31.72 183.529 31.8133 183.689 32C183.876 32.16 183.969 32.3733 183.969 32.64C183.969 33.2267 183.462 34 182.449 34.96C180.662 36.6667 178.542 37.52 176.089 37.52ZM176.689 28.12C177.649 28.12 178.449 27.92 179.089 27.52C179.729 27.12 180.049 26.6133 180.049 26C180.049 25.4933 179.836 25.1067 179.409 24.84C178.982 24.5467 178.396 24.4 177.649 24.4C176.662 24.4 175.796 24.6667 175.049 25.2C174.329 25.7067 173.809 26.4267 173.489 27.36C173.862 27.6 174.342 27.7867 174.929 27.92C175.516 28.0533 176.102 28.12 176.689 28.12Z" fill="white"/>
<path d="M20.85 33.275C20.3333 33.275 19.8917 33.0583 19.525 32.625C19.175 32.175 18.8333 31.4417 18.5 30.425C18.3333 29.925 18.1917 29.4417 18.075 28.975C17.975 28.4917 17.9 28.025 17.85 27.575C17.6333 27.9083 17.4333 28.1333 17.25 28.25C17.0833 28.35 16.8333 28.4 16.5 28.4C15.6833 28.4 14.8167 28.3917 13.9 28.375C12.9833 28.3417 12.1667 28.3167 11.45 28.3C11.4167 28.6 11.3833 28.9083 11.35 29.225C11.3333 29.525 11.325 29.825 11.325 30.125C11.325 30.3917 11.3333 30.6583 11.35 30.925C11.3833 31.1917 11.4083 31.45 11.425 31.7C11.475 32.1667 11.2917 32.5417 10.875 32.825C10.4583 33.1083 9.94167 33.25 9.325 33.25C8.79167 33.25 8.525 33.0167 8.525 32.55C8.525 32.2667 8.6 31.8417 8.75 31.275C8.83333 30.8917 8.9 30.5667 8.95 30.3C9 30.0167 9.025 29.7917 9.025 29.625C9.025 29.1583 8.88333 28.8417 8.6 28.675C8.36667 28.5417 8.25 28.3667 8.25 28.15C8.25 27.95 8.29167 27.7083 8.375 27.425C8.475 27.1417 8.6 26.8833 8.75 26.65C8.9 26.4 9.04167 26.225 9.175 26.125C9.29167 26.0583 9.43333 26 9.6 25.95C9.76667 25.9 9.975 25.8667 10.225 25.85C10.875 23.9833 11.6 22.375 12.4 21.025C13.2167 19.6583 14.0833 18.6083 15 17.875C15.9167 17.125 16.85 16.75 17.8 16.75C18.3833 16.75 18.8083 16.95 19.075 17.35C19.3417 17.7333 19.475 18.3833 19.475 19.3V20.425C19.475 22.1083 19.6 23.6583 19.85 25.075C20.1 26.4917 20.4083 27.6417 20.775 28.525C21.1417 29.4583 21.65 30.225 22.3 30.825C22.5 30.9917 22.6333 31.1417 22.7 31.275C22.7667 31.3917 22.8 31.5167 22.8 31.65C22.8 31.9 22.7 32.15 22.5 32.4C22.3167 32.65 22.075 32.8583 21.775 33.025C21.475 33.1917 21.1667 33.275 20.85 33.275ZM12.2 25.7C13.0167 25.6667 13.7333 25.6417 14.35 25.625C14.9667 25.5917 15.4833 25.575 15.9 25.575H17.65C17.6167 25.1083 17.5833 24.6167 17.55 24.1C17.5333 23.5833 17.525 23.0417 17.525 22.475V21.025C17.525 20.5417 17.4667 20.225 17.35 20.075C17.25 19.9083 17.05 19.825 16.75 19.825C15.9333 19.825 15.1167 20.3583 14.3 21.425C13.4833 22.4917 12.7833 23.9167 12.2 25.7Z" fill="#0097A7"/>
<path d="M23.068 27.242C22.54 27.242 22.3053 27.066 22.364 26.714C22.5253 26.0833 22.6573 25.4453 22.76 24.8C22.8773 24.14 22.936 23.5093 22.936 22.908C22.936 22.1307 22.8847 21.566 22.782 21.214C22.694 20.8473 22.5693 20.598 22.408 20.466C22.2467 20.3193 22.0487 20.2093 21.814 20.136C21.7113 20.092 21.616 20.0333 21.528 19.96C21.4547 19.8867 21.418 19.784 21.418 19.652C21.418 19.4467 21.4987 19.2193 21.66 18.97C21.8213 18.7207 22.0487 18.508 22.342 18.332C22.65 18.1413 22.9947 18.046 23.376 18.046C23.8747 18.046 24.2193 18.222 24.41 18.574C24.6007 18.9113 24.696 19.3587 24.696 19.916C24.696 20.2827 24.6593 20.6933 24.586 21.148C24.5127 21.6027 24.4393 22.0133 24.366 22.38L24.41 22.402C24.6447 21.6247 24.9307 20.906 25.268 20.246C25.62 19.586 26.038 19.0507 26.522 18.64C27.0207 18.2293 27.5927 18.024 28.238 18.024C28.898 18.024 29.4187 18.2513 29.8 18.706C30.1813 19.146 30.372 19.7987 30.372 20.664V21.148C30.7973 20.2533 31.3107 19.5053 31.912 18.904C32.528 18.3027 33.2687 18.002 34.134 18.002C34.838 18.002 35.388 18.2367 35.784 18.706C36.18 19.1753 36.378 19.762 36.378 20.466C36.378 20.7447 36.3487 21.016 36.29 21.28C36.2313 21.5293 36.1653 21.7787 36.092 22.028C36.0333 22.2627 35.9747 22.5047 35.916 22.754C35.8573 23.0033 35.828 23.2527 35.828 23.502C35.828 24.382 36.202 24.954 36.95 25.218C37.0527 25.262 37.1333 25.3133 37.192 25.372C37.2507 25.416 37.28 25.504 37.28 25.636C37.28 25.768 37.236 25.9587 37.148 26.208C37.0747 26.4573 36.9207 26.692 36.686 26.912C36.4513 27.1173 36.114 27.22 35.674 27.22C35.102 27.22 34.662 27.0147 34.354 26.604C34.046 26.1787 33.892 25.6433 33.892 24.998C33.892 24.6753 33.9213 24.338 33.98 23.986C34.0387 23.634 34.112 23.2967 34.2 22.974C34.2733 22.6807 34.332 22.402 34.376 22.138C34.4347 21.874 34.464 21.6467 34.464 21.456C34.464 21.104 34.376 20.8473 34.2 20.686C34.0387 20.5247 33.8187 20.444 33.54 20.444C33.0707 20.444 32.6453 20.5907 32.264 20.884C31.8973 21.1773 31.5673 21.5587 31.274 22.028C30.9953 22.4973 30.7533 23.0107 30.548 23.568C30.5627 23.7 30.57 23.876 30.57 24.096C30.5847 24.3013 30.592 24.4847 30.592 24.646C30.592 24.9247 30.57 25.218 30.526 25.526C30.4967 25.834 30.4307 26.0907 30.328 26.296C30.2107 26.5747 30.0347 26.802 29.8 26.978C29.58 27.154 29.2793 27.242 28.898 27.242C28.7367 27.242 28.5827 27.2053 28.436 27.132C28.2893 27.0733 28.216 26.9707 28.216 26.824C28.216 26.7653 28.26 26.5087 28.348 26.054C28.436 25.5847 28.524 25.0127 28.612 24.338C28.7 23.6633 28.744 23.0033 28.744 22.358C28.744 21.654 28.6707 21.17 28.524 20.906C28.3773 20.6273 28.1573 20.488 27.864 20.488C27.4973 20.488 27.1453 20.642 26.808 20.95C26.4853 21.258 26.1847 21.654 25.906 22.138C25.642 22.622 25.4073 23.128 25.202 23.656C25.0113 24.184 24.8573 24.6753 24.74 25.13V25.372C24.74 25.9147 24.586 26.362 24.278 26.714C23.9847 27.066 23.5813 27.242 23.068 27.242Z" fill="#0097A7"/>
</svg>
